<svg class="rich-terminal" viewBox="0 0 2056 391.59999999999997" xmlns="http://www.w3.org/2000/svg">
    <!-- Generated with Rich https://www.textualize.io -->
    <style>

    @font-face {
        font-family: "Fira Code";
        src: local("FiraCode-Regular"),
                url("https://cdnjs.cloudflare.com/ajax/libs/firacode/6.2.0/woff2/FiraCode-Regular.woff2") format("woff2"),
                url("https://cdnjs.cloudflare.com/ajax/libs/firacode/6.2.0/woff/FiraCode-Regular.woff") format("woff");
        font-style: normal;
        font-weight: 400;
    }
    @font-face {
        font-family: "Fira Code";
        src: local("FiraCode-Bold"),
                url("https://cdnjs.cloudflare.com/ajax/libs/firacode/6.2.0/woff2/FiraCode-Bold.woff2") format("woff2"),
                url("https://cdnjs.cloudflare.com/ajax/libs/firacode/6.2.0/woff/FiraCode-Bold.woff") format("woff");
        font-style: bold;
        font-weight: 700;
    }

    .terminal-2794441137-matrix {
        font-family: Fira Code, monospace;
        font-size: 20px;
        line-height: 24.4px;
        font-variant-east-asian: full-width;
    }

    .terminal-2794441137-title {
        font-size: 18px;
        font-weight: bold;
        font-family: arial;
    }

    .terminal-2794441137-r1 { fill: #c5c8c6 }
.terminal-2794441137-r2 { fill: #e3e3e3 }
.terminal-2794441137-r3 { fill: #e1e1e1 }
.terminal-2794441137-r4 { fill: #e2e2e2 }
.terminal-2794441137-r5 { fill: #608ab1;font-weight: bold }
.terminal-2794441137-r6 { fill: #98a84b }
.terminal-2794441137-r7 { fill: #14191f }
.terminal-2794441137-r8 { fill: #e2e2e2;font-weight: bold }
.terminal-2794441137-r9 { fill: #23568b }
.terminal-2794441137-r10 { fill: #00050f }
.terminal-2794441137-r11 { fill: #e1e1e1;font-weight: bold }
.terminal-2794441137-r12 { fill: #24292f }
.terminal-2794441137-r13 { fill: #dde8f3;font-weight: bold }
.terminal-2794441137-r14 { fill: #ddedf9 }
    </style>

    <defs>
    <clipPath id="terminal-2794441137-clip-terminal">
      <rect x="0" y="0" width="2036.3999999999999" height="340.59999999999997" />
    </clipPath>
    <clipPath id="terminal-2794441137-line-0">
    <rect x="0" y="1.5" width="2037.4" height="24.65"/>
            </clipPath>
<clipPath id="terminal-2794441137-line-1">
    <rect x="0" y="25.9" width="2037.4" height="24.65"/>
            </clipPath>
<clipPath id="terminal-2794441137-line-2">
    <rect x="0" y="50.3" width="2037.4" height="24.65"/>
            </clipPath>
<clipPath id="terminal-2794441137-line-3">
    <rect x="0" y="74.7" width="2037.4" height="24.65"/>
            </clipPath>
<clipPath id="terminal-2794441137-line-4">
    <rect x="0" y="99.1" width="2037.4" height="24.65"/>
            </clipPath>
<clipPath id="terminal-2794441137-line-5">
    <rect x="0" y="123.5" width="2037.4" height="24.65"/>
            </clipPath>
<clipPath id="terminal-2794441137-line-6">
    <rect x="0" y="147.9" width="2037.4" height="24.65"/>
            </clipPath>
<clipPath id="terminal-2794441137-line-7">
    <rect x="0" y="172.3" width="2037.4" height="24.65"/>
            </clipPath>
<clipPath id="terminal-2794441137-line-8">
    <rect x="0" y="196.7" width="2037.4" height="24.65"/>
            </clipPath>
<clipPath id="terminal-2794441137-line-9">
    <rect x="0" y="221.1" width="2037.4" height="24.65"/>
            </clipPath>
<clipPath id="terminal-2794441137-line-10">
    <rect x="0" y="245.5" width="2037.4" height="24.65"/>
            </clipPath>
<clipPath id="terminal-2794441137-line-11">
    <rect x="0" y="269.9" width="2037.4" height="24.65"/>
            </clipPath>
<clipPath id="terminal-2794441137-line-12">
    <rect x="0" y="294.3" width="2037.4" height="24.65"/>
            </clipPath>
    </defs>

    <rect fill="#292929" stroke="rgba(255,255,255,0.35)" stroke-width="1" x="1" y="1" width="2054" height="389.6" rx="8"/><text class="terminal-2794441137-title" fill="#c5c8c6" text-anchor="middle" x="1027" y="27">Textual&#160;Demo</text>
            <g transform="translate(26,22)">
            <circle cx="0" cy="0" r="7" fill="#ff5f57"/>
            <circle cx="22" cy="0" r="7" fill="#febc2e"/>
            <circle cx="44" cy="0" r="7" fill="#28c840"/>
            </g>
        
    <g transform="translate(9, 41)" clip-path="url(#terminal-2794441137-clip-terminal)">
    <rect fill="#282828" x="0" y="1.5" width="12.2" height="24.65" shape-rendering="crispEdges"/><rect fill="#282828" x="12.2" y="1.5" width="12.2" height="24.65" shape-rendering="crispEdges"/><rect fill="#282828" x="24.4" y="1.5" width="61" height="24.65" shape-rendering="crispEdges"/><rect fill="#282828" x="85.4" y="1.5" width="12.2" height="24.65" shape-rendering="crispEdges"/><rect fill="#282828" x="97.6" y="1.5" width="829.6" height="24.65" shape-rendering="crispEdges"/><rect fill="#282828" x="927.2" y="1.5" width="146.4" height="24.65" shape-rendering="crispEdges"/><rect fill="#282828" x="1073.6" y="1.5" width="841.8" height="24.65" shape-rendering="crispEdges"/><rect fill="#282828" x="1915.4" y="1.5" width="12.2" height="24.65" shape-rendering="crispEdges"/><rect fill="#282828" x="1927.6" y="1.5" width="0" height="24.65" shape-rendering="crispEdges"/><rect fill="#282828" x="1927.6" y="1.5" width="97.6" height="24.65" shape-rendering="crispEdges"/><rect fill="#282828" x="2025.2" y="1.5" width="12.2" height="24.65" shape-rendering="crispEdges"/><rect fill="#1e1e1e" x="0" y="25.9" width="366" height="24.65" shape-rendering="crispEdges"/><rect fill="#1e1e1e" x="366" y="25.9" width="24.4" height="24.65" shape-rendering="crispEdges"/><rect fill="#262626" x="390.4" y="25.9" width="122" height="24.65" shape-rendering="crispEdges"/><rect fill="#262626" x="512.4" y="25.9" width="97.6" height="24.65" shape-rendering="crispEdges"/><rect fill="#262626" x="610" y="25.9" width="24.4" height="24.65" shape-rendering="crispEdges"/><rect fill="#262626" x="634.4" y="25.9" width="73.2" height="24.65" shape-rendering="crispEdges"/><rect fill="#262626" x="707.6" y="25.9" width="12.2" height="24.65" shape-rendering="crispEdges"/><rect fill="#262626" x="719.8" y="25.9" width="1244.4" height="24.65" shape-rendering="crispEdges"/><rect fill="#23568b" x="1964.2" y="25.9" width="24.4" height="24.65" shape-rendering="crispEdges"/><rect fill="#1e1e1e" x="1988.6" y="25.9" width="24.4" height="24.65" shape-rendering="crispEdges"/><rect fill="#00050f" x="2013" y="25.9" width="24.4" height="24.65" shape-rendering="crispEdges"/><rect fill="#1e1e1e" x="0" y="50.3" width="12.2" height="24.65" shape-rendering="crispEdges"/><rect fill="#262626" x="12.2" y="50.3" width="353.8" height="24.65" shape-rendering="crispEdges"/><rect fill="#1e1e1e" x="366" y="50.3" width="24.4" height="24.65" shape-rendering="crispEdges"/><rect fill="#262626" x="390.4" y="50.3" width="122" height="24.65" shape-rendering="crispEdges"/><rect fill="#262626" x="512.4" y="50.3" width="134.2" height="24.65" shape-rendering="crispEdges"/><rect fill="#262626" x="646.6" y="50.3" width="24.4" height="24.65" shape-rendering="crispEdges"/><rect fill="#262626" x="671" y="50.3" width="463.6" height="24.65" shape-rendering="crispEdges"/><rect fill="#262626" x="1134.6" y="50.3" width="12.2" height="24.65" shape-rendering="crispEdges"/><rect fill="#262626" x="1146.8" y="50.3" width="817.4" height="24.65" shape-rendering="crispEdges"/><rect fill="#23568b" x="1964.2" y="50.3" width="24.4" height="24.65" shape-rendering="crispEdges"/><rect fill="#1e1e1e" x="1988.6" y="50.3" width="24.4" height="24.65" shape-rendering="crispEdges"/><rect fill="#00050f" x="2013" y="50.3" width="24.4" height="24.65" shape-rendering="crispEdges"/><rect fill="#1e1e1e" x="0" y="74.7" width="12.2" height="24.65" shape-rendering="crispEdges"/><rect fill="#262626" x="12.2" y="74.7" width="24.4" height="24.65" shape-rendering="crispEdges"/><rect fill="#262626" x="36.6" y="74.7" width="134.2" height="24.65" shape-rendering="crispEdges"/><rect fill="#262626" x="170.8" y="74.7" width="36.6" height="24.65" shape-rendering="crispEdges"/><rect fill="#262626" x="207.4" y="74.7" width="134.2" height="24.65" shape-rendering="crispEdges"/><rect fill="#262626" x="341.6" y="74.7" width="24.4" height="24.65" shape-rendering="crispEdges"/><rect fill="#1e1e1e" x="366" y="74.7" width="24.4" height="24.65" shape-rendering="crispEdges"/><rect fill="#262626" x="390.4" y="74.7" width="122" height="24.65" shape-rendering="crispEdges"/><rect fill="#262626" x="512.4" y="74.7" width="109.8" height="24.65" shape-rendering="crispEdges"/><rect fill="#262626" x="622.2" y="74.7" width="24.4" height="24.65" shape-rendering="crispEdges"/><rect fill="#262626" x="646.6" y="74.7" width="73.2" height="24.65" shape-rendering="crispEdges"/><rect fill="#262626" x="719.8" y="74.7" width="12.2" height="24.65" shape-rendering="crispEdges"/><rect fill="#262626" x="732" y="74.7" width="1232.2" height="24.65" shape-rendering="crispEdges"/><rect fill="#23568b" x="1964.2" y="74.7" width="24.4" height="24.65" shape-rendering="crispEdges"/><rect fill="#1e1e1e" x="1988.6" y="74.7" width="24.4" height="24.65" shape-rendering="crispEdges"/><rect fill="#00050f" x="2013" y="74.7" width="24.4" height="24.65" shape-rendering="crispEdges"/><rect fill="#1e1e1e" x="0" y="99.1" width="12.2" height="24.65" shape-rendering="crispEdges"/><rect fill="#262626" x="12.2" y="99.1" width="353.8" height="24.65" shape-rendering="crispEdges"/><rect fill="#1e1e1e" x="366" y="99.1" width="24.4" height="24.65" shape-rendering="crispEdges"/><rect fill="#262626" x="390.4" y="99.1" width="122" height="24.65" shape-rendering="crispEdges"/><rect fill="#262626" x="512.4" y="99.1" width="97.6" height="24.65" shape-rendering="crispEdges"/><rect fill="#262626" x="610" y="99.1" width="24.4" height="24.65" shape-rendering="crispEdges"/><rect fill="#262626" x="634.4" y="99.1" width="183" height="24.65" shape-rendering="crispEdges"/><rect fill="#262626" x="817.4" y="99.1" width="12.2" height="24.65" shape-rendering="crispEdges"/><rect fill="#262626" x="829.6" y="99.1" width="1134.6" height="24.65" shape-rendering="crispEdges"/><rect fill="#14191f" x="1964.2" y="99.1" width="24.4" height="24.65" shape-rendering="crispEdges"/><rect fill="#1e1e1e" x="1988.6" y="99.1" width="24.4" height="24.65" shape-rendering="crispEdges"/><rect fill="#00050f" x="2013" y="99.1" width="24.4" height="24.65" shape-rendering="crispEdges"/><rect fill="#1e1e1e" x="0" y="123.5" width="366" height="24.65" shape-rendering="crispEdges"/><rect fill="#1e1e1e" x="366" y="123.5" width="24.4" height="24.65" shape-rendering="crispEdges"/><rect fill="#262626" x="390.4" y="123.5" width="122" height="24.65" shape-rendering="crispEdges"/><rect fill="#262626" x="512.4" y="123.5" width="122" height="24.65" shape-rendering="crispEdges"/><rect fill="#262626" x="634.4" y="123.5" width="24.4" height="24.65" shape-rendering="crispEdges"/><rect fill="#262626" x="658.8" y="123.5" width="12.2" height="24.65" shape-rendering="crispEdges"/><rect fill="#262626" x="671" y="123.5" width="1293.2" height="24.65" shape-rendering="crispEdges"/><rect fill="#14191f" x="1964.2" y="123.5" width="24.4" height="24.65" shape-rendering="crispEdges"/><rect fill="#1e1e1e" x="1988.6" y="123.5" width="24.4" height="24.65" shape-rendering="crispEdges"/><rect fill="#00050f" x="2013" y="123.5" width="24.4" height="24.65" shape-rendering="crispEdges"/><rect fill="#1e1e1e" x="0" y="147.9" width="12.2" height="24.65" shape-rendering="crispEdges"/><rect fill="#262626" x="12.2" y="147.9" width="353.8" height="24.65" shape-rendering="crispEdges"/><rect fill="#1e1e1e" x="366" y="147.9" width="24.4" height="24.65" shape-rendering="crispEdges"/><rect fill="#262626" x="390.4" y="147.9" width="146.4" height="24.65" shape-rendering="crispEdges"/><rect fill="#262626" x="536.8" y="147.9" width="73.2" height="24.65" shape-rendering="crispEdges"/><rect fill="#262626" x="610" y="147.9" width="24.4" height="24.65" shape-rendering="crispEdges"/><rect fill="#262626" x="634.4" y="147.9" width="902.8" height="24.65" shape-rendering="crispEdges"/><rect fill="#262626" x="1537.2" y="147.9" width="12.2" height="24.65" shape-rendering="crispEdges"/><rect fill="#262626" x="1549.4" y="147.9" width="414.8" height="24.65" shape-rendering="crispEdges"/><rect fill="#14191f" x="1964.2" y="147.9" width="24.4" height="24.65" shape-rendering="crispEdges"/><rect fill="#1e1e1e" x="1988.6" y="147.9" width="24.4" height="24.65" shape-rendering="crispEdges"/><rect fill="#00050f" x="2013" y="147.9" width="24.4" height="24.65" shape-rendering="crispEdges"/><rect fill="#1e1e1e" x="0" y="172.3" width="12.2" height="24.65" shape-rendering="crispEdges"/><rect fill="#262626" x="12.2" y="172.3" width="24.4" height="24.65" shape-rendering="crispEdges"/><rect fill="#262626" x="36.6" y="172.3" width="109.8" height="24.65" shape-rendering="crispEdges"/><rect fill="#262626" x="146.4" y="172.3" width="85.4" height="24.65" shape-rendering="crispEdges"/><rect fill="#262626" x="231.8" y="172.3" width="109.8" height="24.65" shape-rendering="crispEdges"/><rect fill="#262626" x="341.6" y="172.3" width="24.4" height="24.65" shape-rendering="crispEdges"/><rect fill="#1e1e1e" x="366" y="172.3" width="24.4" height="24.65" shape-rendering="crispEdges"/><rect fill="#262626" x="390.4" y="172.3" width="146.4" height="24.65" shape-rendering="crispEdges"/><rect fill="#262626" x="536.8" y="172.3" width="170.8" height="24.65" shape-rendering="crispEdges"/><rect fill="#262626" x="707.6" y="172.3" width="24.4" height="24.65" shape-rendering="crispEdges"/><rect fill="#262626" x="732" y="172.3" width="12.2" height="24.65" shape-rendering="crispEdges"/><rect fill="#262626" x="744.2" y="172.3" width="1220" height="24.65" shape-rendering="crispEdges"/><rect fill="#14191f" x="1964.2" y="172.3" width="24.4" height="24.65" shape-rendering="crispEdges"/><rect fill="#1e1e1e" x="1988.6" y="172.3" width="24.4" height="24.65" shape-rendering="crispEdges"/><rect fill="#00050f" x="2013" y="172.3" width="24.4" height="24.65" shape-rendering="crispEdges"/><rect fill="#1e1e1e" x="0" y="196.7" width="12.2" height="24.65" shape-rendering="crispEdges"/><rect fill="#262626" x="12.2" y="196.7" width="353.8" height="24.65" shape-rendering="crispEdges"/><rect fill="#1e1e1e" x="366" y="196.7" width="24.4" height="24.65" shape-rendering="crispEdges"/><rect fill="#262626" x="390.4" y="196.7" width="170.8" height="24.65" shape-rendering="crispEdges"/><rect fill="#262626" x="561.2" y="196.7" width="61" height="24.65" shape-rendering="crispEdges"/><rect fill="#262626" x="622.2" y="196.7" width="12.2" height="24.65" shape-rendering="crispEdges"/><rect fill="#262626" x="634.4" y="196.7" width="1329.8" height="24.65" shape-rendering="crispEdges"/><rect fill="#14191f" x="1964.2" y="196.7" width="24.4" height="24.65" shape-rendering="crispEdges"/><rect fill="#1e1e1e" x="1988.6" y="196.7" width="24.4" height="24.65" shape-rendering="crispEdges"/><rect fill="#00050f" x="2013" y="196.7" width="24.4" height="24.65" shape-rendering="crispEdges"/><rect fill="#1e1e1e" x="0" y="221.1" width="366" height="24.65" shape-rendering="crispEdges"/><rect fill="#1e1e1e" x="366" y="221.1" width="24.4" height="24.65" shape-rendering="crispEdges"/><rect fill="#1e1e1e" x="390.4" y="221.1" width="1598.2" height="24.65" shape-rendering="crispEdges"/><rect fill="#1e1e1e" x="1988.6" y="221.1" width="24.4" height="24.65" shape-rendering="crispEdges"/><rect fill="#23568b" x="2013" y="221.1" width="24.4" height="24.65" shape-rendering="crispEdges"/><rect fill="#1e1e1e" x="0" y="245.5" width="12.2" height="24.65" shape-rendering="crispEdges"/><rect fill="#262626" x="12.2" y="245.5" width="353.8" height="24.65" shape-rendering="crispEdges"/><rect fill="#1e1e1e" x="366" y="245.5" width="24.4" height="24.65" shape-rendering="crispEdges"/><rect fill="#1e1e1e" x="390.4" y="245.5" width="1598.2" height="24.65" shape-rendering="crispEdges"/><rect fill="#1e1e1e" x="1988.6" y="245.5" width="24.4" height="24.65" shape-rendering="crispEdges"/><rect fill="#00050f" x="2013" y="245.5" width="24.4" height="24.65" shape-rendering="crispEdges"/><rect fill="#1e1e1e" x="0" y="269.9" width="12.2" height="24.65" shape-rendering="crispEdges"/><rect fill="#262626" x="12.2" y="269.9" width="24.4" height="24.65" shape-rendering="crispEdges"/><rect fill="#262626" x="36.6" y="269.9" width="73.2" height="24.65" shape-rendering="crispEdges"/><rect fill="#262626" x="109.8" y="269.9" width="146.4" height="24.65" shape-rendering="crispEdges"/><rect fill="#262626" x="256.2" y="269.9" width="85.4" height="24.65" shape-rendering="crispEdges"/><rect fill="#262626" x="341.6" y="269.9" width="24.4" height="24.65" shape-rendering="crispEdges"/><rect fill="#1e1e1e" x="366" y="269.9" width="24.4" height="24.65" shape-rendering="crispEdges"/><rect fill="#1e1e1e" x="390.4" y="269.9" width="73.2" height="24.65" shape-rendering="crispEdges"/><rect fill="#1e1e1e" x="463.6" y="269.9" width="1525" height="24.65" shape-rendering="crispEdges"/><rect fill="#1e1e1e" x="1988.6" y="269.9" width="24.4" height="24.65" shape-rendering="crispEdges"/><rect fill="#00050f" x="2013" y="269.9" width="24.4" height="24.65" shape-rendering="crispEdges"/><rect fill="#1e1e1e" x="0" y="294.3" width="12.2" height="24.65" shape-rendering="crispEdges"/><rect fill="#262626" x="12.2" y="294.3" width="353.8" height="24.65" shape-rendering="crispEdges"/><rect fill="#1e1e1e" x="366" y="294.3" width="24.4" height="24.65" shape-rendering="crispEdges"/><rect fill="#1e1e1e" x="390.4" y="294.3" width="1598.2" height="24.65" shape-rendering="crispEdges"/><rect fill="#1e1e1e" x="1988.6" y="294.3" width="24.4" height="24.65" shape-rendering="crispEdges"/><rect fill="#00050f" x="2013" y="294.3" width="24.4" height="24.65" shape-rendering="crispEdges"/><rect fill="#0053aa" x="0" y="318.7" width="97.6" height="24.65" shape-rendering="crispEdges"/><rect fill="#0178d4" x="97.6" y="318.7" width="109.8" height="24.65" shape-rendering="crispEdges"/><rect fill="#0053aa" x="207.4" y="318.7" width="97.6" height="24.65" shape-rendering="crispEdges"/><rect fill="#0178d4" x="305" y="318.7" width="219.6" height="24.65" shape-rendering="crispEdges"/><rect fill="#0053aa" x="524.6" y="318.7" width="97.6" height="24.65" shape-rendering="crispEdges"/><rect fill="#0178d4" x="622.2" y="318.7" width="146.4" height="24.65" shape-rendering="crispEdges"/><rect fill="#0053aa" x="768.6" y="318.7" width="48.8" height="24.65" shape-rendering="crispEdges"/><rect fill="#0178d4" x="817.4" y="318.7" width="85.4" height="24.65" shape-rendering="crispEdges"/><rect fill="#0053aa" x="902.8" y="318.7" width="97.6" height="24.65" shape-rendering="crispEdges"/><rect fill="#0178d4" x="1000.4" y="318.7" width="73.2" height="24.65" shape-rendering="crispEdges"/><rect fill="#0178d4" x="1073.6" y="318.7" width="963.8" height="24.65" shape-rendering="crispEdges"/>
    <g class="terminal-2794441137-matrix">
    <text class="terminal-2794441137-r2" x="12.2" y="20" textLength="12.2" clip-path="url(#terminal-2794441137-line-0)">⭘</text><text class="terminal-2794441137-r2" x="927.2" y="20" textLength="146.4" clip-path="url(#terminal-2794441137-line-0)">Textual&#160;Demo</text><text class="terminal-2794441137-r1" x="2037.4" y="20" textLength="12.2" clip-path="url(#terminal-2794441137-line-0)">
</text><text class="terminal-2794441137-r5" x="512.4" y="44.4" textLength="97.6" clip-path="url(#terminal-2794441137-line-1)">&quot;SortAs&quot;</text><text class="terminal-2794441137-r4" x="610" y="44.4" textLength="24.4" clip-path="url(#terminal-2794441137-line-1)">:&#160;</text><text class="terminal-2794441137-r6" x="634.4" y="44.4" textLength="73.2" clip-path="url(#terminal-2794441137-line-1)">&quot;SGML&quot;</text><text class="terminal-2794441137-r4" x="707.6" y="44.4" textLength="12.2" clip-path="url(#terminal-2794441137-line-1)">,</text><text class="terminal-2794441137-r1" x="2037.4" y="44.4" textLength="12.2" clip-path="url(#terminal-2794441137-line-1)">
</text><text class="terminal-2794441137-r5" x="512.4" y="68.8" textLength="134.2" clip-path="url(#terminal-2794441137-line-2)">&quot;GlossTerm&quot;</text><text class="terminal-2794441137-r4" x="646.6" y="68.8" textLength="24.4" clip-path="url(#terminal-2794441137-line-2)">:&#160;</text><text class="terminal-2794441137-r6" x="671" y="68.8" textLength="463.6" clip-path="url(#terminal-2794441137-line-2)">&quot;Standard&#160;Generalized&#160;Markup&#160;Language&quot;</text><text class="terminal-2794441137-r4" x="1134.6" y="68.8" textLength="12.2" clip-path="url(#terminal-2794441137-line-2)">,</text><text class="terminal-2794441137-r1" x="2037.4" y="68.8" textLength="12.2" clip-path="url(#terminal-2794441137-line-2)">
</text><text class="terminal-2794441137-r4" x="170.8" y="93.2" textLength="36.6" clip-path="url(#terminal-2794441137-line-3)">TOP</text><text class="terminal-2794441137-r5" x="512.4" y="93.2" textLength="109.8" clip-path="url(#terminal-2794441137-line-3)">&quot;Acronym&quot;</text><text class="terminal-2794441137-r4" x="622.2" y="93.2" textLength="24.4" clip-path="url(#terminal-2794441137-line-3)">:&#160;</text><text class="terminal-2794441137-r6" x="646.6" y="93.2" textLength="73.2" clip-path="url(#terminal-2794441137-line-3)">&quot;SGML&quot;</text><text class="terminal-2794441137-r4" x="719.8" y="93.2" textLength="12.2" clip-path="url(#terminal-2794441137-line-3)">,</text><text class="terminal-2794441137-r7" x="1964.2" y="93.2" textLength="24.4" clip-path="url(#terminal-2794441137-line-3)">▆▆</text><text class="terminal-2794441137-r1" x="2037.4" y="93.2" textLength="12.2" clip-path="url(#terminal-2794441137-line-3)">
</text><text class="terminal-2794441137-r5" x="512.4" y="117.6" textLength="97.6" clip-path="url(#terminal-2794441137-line-4)">&quot;Abbrev&quot;</text><text class="terminal-2794441137-r4" x="610" y="117.6" textLength="24.4" clip-path="url(#terminal-2794441137-line-4)">:&#160;</text><text class="terminal-2794441137-r6" x="634.4" y="117.6" textLength="183" clip-path="url(#terminal-2794441137-line-4)">&quot;ISO&#160;8879:1986&quot;</text><text class="terminal-2794441137-r4" x="817.4" y="117.6" textLength="12.2" clip-path="url(#terminal-2794441137-line-4)">,</text><text class="terminal-2794441137-r1" x="2037.4" y="117.6" textLength="12.2" clip-path="url(#terminal-2794441137-line-4)">
</text><text class="terminal-2794441137-r5" x="512.4" y="142" textLength="122" clip-path="url(#terminal-2794441137-line-5)">&quot;GlossDef&quot;</text><text class="terminal-2794441137-r4" x="634.4" y="142" textLength="24.4" clip-path="url(#terminal-2794441137-line-5)">:&#160;</text><text class="terminal-2794441137-r8" x="658.8" y="142" textLength="12.2" clip-path="url(#terminal-2794441137-line-5)">{</text><text class="terminal-2794441137-r1" x="2037.4" y="142" textLength="12.2" clip-path="url(#terminal-2794441137-line-5)">
</text><text class="terminal-2794441137-r5" x="536.8" y="166.4" textLength="73.2" clip-path="url(#terminal-2794441137-line-6)">&quot;para&quot;</text><text class="terminal-2794441137-r4" x="610" y="166.4" textLength="24.4" clip-path="url(#terminal-2794441137-line-6)">:&#160;</text><text class="terminal-2794441137-r6" x="634.4" y="166.4" textLength="902.8" clip-path="url(#terminal-2794441137-line-6)">&quot;A&#160;meta-markup&#160;language,&#160;used&#160;to&#160;create&#160;markup&#160;languages&#160;such&#160;as&#160;DocBook.&quot;</text><text class="terminal-2794441137-r4" x="1537.2" y="166.4" textLength="12.2" clip-path="url(#terminal-2794441137-line-6)">,</text><text class="terminal-2794441137-r1" x="2037.4" y="166.4" textLength="12.2" clip-path="url(#terminal-2794441137-line-6)">
</text><text class="terminal-2794441137-r4" x="146.4" y="190.8" textLength="85.4" clip-path="url(#terminal-2794441137-line-7)">Widgets</text><text class="terminal-2794441137-r5" x="536.8" y="190.8" textLength="170.8" clip-path="url(#terminal-2794441137-line-7)">&quot;GlossSeeAlso&quot;</text><text class="terminal-2794441137-r4" x="707.6" y="190.8" textLength="24.4" clip-path="url(#terminal-2794441137-line-7)">:&#160;</text><text class="terminal-2794441137-r8" x="732" y="190.8" textLength="12.2" clip-path="url(#terminal-2794441137-line-7)">[</text><text class="terminal-2794441137-r1" x="2037.4" y="190.8" textLength="12.2" clip-path="url(#terminal-2794441137-line-7)">
</text><text class="terminal-2794441137-r6" x="561.2" y="215.2" textLength="61" clip-path="url(#terminal-2794441137-line-8)">&quot;GML&quot;</text><text class="terminal-2794441137-r4" x="622.2" y="215.2" textLength="12.2" clip-path="url(#terminal-2794441137-line-8)">,</text><text class="terminal-2794441137-r9" x="2013" y="215.2" textLength="24.4" clip-path="url(#terminal-2794441137-line-8)">▅▅</text><text class="terminal-2794441137-r1" x="2037.4" y="215.2" textLength="12.2" clip-path="url(#terminal-2794441137-line-8)">
</text><text class="terminal-2794441137-r10" x="2013" y="239.6" textLength="24.4" clip-path="url(#terminal-2794441137-line-9)">▅▅</text><text class="terminal-2794441137-r1" x="2037.4" y="239.6" textLength="12.2" clip-path="url(#terminal-2794441137-line-9)">
</text><text class="terminal-2794441137-r1" x="2037.4" y="264" textLength="12.2" clip-path="url(#terminal-2794441137-line-10)">
</text><text class="terminal-2794441137-r4" x="109.8" y="288.4" textLength="146.4" clip-path="url(#terminal-2794441137-line-11)">Rich&#160;content</text><text class="terminal-2794441137-r11" x="390.4" y="288.4" textLength="73.2" clip-path="url(#terminal-2794441137-line-11)">Tables</text><text class="terminal-2794441137-r1" x="2037.4" y="288.4" textLength="12.2" clip-path="url(#terminal-2794441137-line-11)">
</text><text class="terminal-2794441137-r12" x="390.4" y="312.8" textLength="1598.2" clip-path="url(#terminal-2794441137-line-12)">━━━━━━━━━━━━━━━━━━━━━━━━━━━━━━━━━━━━━━━━━━━━━━━━━━━━━━━━━━━━━━━━━━━━━━━━━━━━━━━━━━━━━━━━━━━━━━━━━━━━━━━━━━━━━━━━━━━━━━━━━━━━━━━━━━━</text><text class="terminal-2794441137-r1" x="2037.4" y="312.8" textLength="12.2" clip-path="url(#terminal-2794441137-line-12)">
</text><text class="terminal-2794441137-r13" x="0" y="337.2" textLength="97.6" clip-path="url(#terminal-2794441137-line-13)">&#160;CTRL+B&#160;</text><text class="terminal-2794441137-r14" x="97.6" y="337.2" textLength="109.8" clip-path="url(#terminal-2794441137-line-13)">&#160;Sidebar&#160;</text><text class="terminal-2794441137-r13" x="207.4" y="337.2" textLength="97.6" clip-path="url(#terminal-2794441137-line-13)">&#160;CTRL+T&#160;</text><text class="terminal-2794441137-r14" x="305" y="337.2" textLength="219.6" clip-path="url(#terminal-2794441137-line-13)">&#160;Toggle&#160;Dark&#160;mode&#160;</text><text class="terminal-2794441137-r13" x="524.6" y="337.2" textLength="97.6" clip-path="url(#terminal-2794441137-line-13)">&#160;CTRL+S&#160;</text><text class="terminal-2794441137-r14" x="622.2" y="337.2" textLength="146.4" clip-path="url(#terminal-2794441137-line-13)">&#160;Screenshot&#160;</text><text class="terminal-2794441137-r13" x="768.6" y="337.2" textLength="48.8" clip-path="url(#terminal-2794441137-line-13)">&#160;F1&#160;</text><text class="terminal-2794441137-r14" x="817.4" y="337.2" textLength="85.4" clip-path="url(#terminal-2794441137-line-13)">&#160;Notes&#160;</text><text class="terminal-2794441137-r13" x="902.8" y="337.2" textLength="97.6" clip-path="url(#terminal-2794441137-line-13)">&#160;CTRL+Q&#160;</text><text class="terminal-2794441137-r14" x="1000.4" y="337.2" textLength="73.2" clip-path="url(#terminal-2794441137-line-13)">&#160;Quit&#160;</text>
    </g>
    </g>
</svg>
